<svg width="57" height="57" viewBox="0 0 57 57" fill="none" xmlns="http://www.w3.org/2000/svg">
<path d="M51.25 19.2916H28.5C27.975 19.2916 27.625 18.9416 27.625 18.4166V6.16663C27.625 5.64163 27.975 5.29163 28.5 5.29163H51.25C51.775 5.29163 52.125 5.64163 52.125 6.16663V18.4166C52.125 18.9416 51.775 19.2916 51.25 19.2916ZM29.375 17.5416H50.375V7.04163H29.375V17.5416Z" fill="#F2E8C9"/>
<path d="M35.5 11.7666H28.5C27.975 11.7666 27.625 11.4166 27.625 10.8916V6.16663C27.625 5.64163 27.975 5.29163 28.5 5.29163H35.5C36.025 5.29163 36.375 5.64163 36.375 6.16663V10.8916C36.375 11.4166 36.025 11.7666 35.5 11.7666ZM29.375 10.0166H34.625V7.04163H29.375V10.0166Z" fill="#F2E8C9"/>
<path d="M50.55 52.5416H6.27502C5.92502 52.5416 5.75002 52.3666 5.57502 52.1916C5.40002 52.0166 5.40002 51.6666 5.40002 51.4916C8.02502 40.8166 17.475 33.2916 28.5 33.2916C39.525 33.2916 48.975 40.8166 51.6 51.4916C51.6 51.6666 51.6 52.0166 51.425 52.1916C51.075 52.3666 50.9 52.5416 50.55 52.5416ZM7.50002 50.7916H49.5C46.875 41.5166 38.3 35.0416 28.5 35.0416C18.7 35.0416 10.125 41.5166 7.50002 50.7916Z" fill="#F5D15F"/>
<path d="M14.85 45.5416C14.675 45.5416 14.5 45.5416 14.325 45.3666C13.975 45.0166 13.975 44.4916 14.325 44.1416C16.775 41.3416 19.925 39.2416 23.425 37.8416C23.95 37.6666 24.3 37.8416 24.475 38.3666C24.65 38.8916 24.475 39.2416 23.95 39.4166C20.8 40.6416 17.825 42.7416 15.55 45.1916C15.2 45.3666 15.025 45.5416 14.85 45.5416Z" fill="#F2E8C9"/>
<path d="M28.5 35.0416C27.975 35.0416 27.625 34.6916 27.625 34.1666V6.16663C27.625 5.64163 27.975 5.29163 28.5 5.29163C29.025 5.29163 29.375 5.64163 29.375 6.16663V34.1666C29.375 34.6916 29.025 35.0416 28.5 35.0416Z" fill="#F5D15F"/>
</svg>
