<svg width="57" height="57" viewBox="0 0 57 57" fill="none" xmlns="http://www.w3.org/2000/svg">
<path d="M22.725 52.5416C22.55 52.5416 22.2 52.3666 22.025 52.3666L16.25 46.5916C15.9 46.2416 15.9 45.7166 16.25 45.3666L19.225 41.5166L15.725 38.0166L12.05 41.1666C11.7 41.5166 11.175 41.3416 10.825 41.1666L5.05003 35.3916C4.87503 35.2166 4.70003 34.8666 4.87503 34.5166C5.05003 34.1666 5.22503 33.9916 5.40003 33.8166L19.05 28.7416C19.4 28.5666 19.75 28.7416 19.925 28.9166L28.325 37.3166C28.5 37.4916 28.675 37.8416 28.5 38.1916L23.425 51.8416C23.25 52.1916 23.075 52.3666 22.725 52.3666C22.9 52.5416 22.725 52.5416 22.725 52.5416ZM18.175 45.8916L22.375 50.0916L26.75 38.3666L19.225 30.6666L7.50003 35.0416L11.7 39.2416L15.55 36.2666C15.725 35.9166 16.25 35.9166 16.6 36.2666L21.15 40.8166C21.5 41.1666 21.5 41.6916 21.15 42.0416L18.175 45.8916Z" fill="#F5D15F"/>
<path d="M13.45 51.3166C13.275 51.3166 12.925 51.1416 12.75 51.1416L6.27499 44.6666C6.09999 44.4916 5.92499 44.3166 6.09999 43.9667C6.09999 43.7916 6.27499 43.4417 6.44999 43.2667L15.375 36.2667C15.725 35.9167 16.25 35.9167 16.6 36.2667L21.15 40.8166C21.5 41.1666 21.5 41.6916 21.15 42.0416L14.15 50.9666C13.975 51.1416 13.8 51.3166 13.45 51.3166ZM8.37499 43.9667L13.45 49.0416L19.4 41.5167L15.9 38.0167L8.37499 43.9667Z" fill="#F2E8C9"/>
<path d="M27.8 38.8916C27.625 38.8916 27.275 38.8916 27.1 38.7166L18.7 30.3166C18.525 30.1416 18.525 29.9666 18.525 29.6166C18.525 29.2666 18.7 29.0916 18.7 28.9166L40.575 7.21663C41.975 5.81663 44.075 5.11663 46.175 5.29163L50.9 5.81663C51.25 5.81663 51.6 6.16663 51.6 6.51663L52.125 11.2416C52.3 13.3416 51.6 15.2666 50.2 16.8416L28.325 38.7166C28.15 38.8916 27.975 38.8916 27.8 38.8916ZM20.625 29.6166L27.8 36.7916L48.975 15.6166C50.025 14.5666 50.55 12.9916 50.375 11.4166L49.85 7.39163L45.825 6.86663C44.25 6.69163 42.85 7.21663 41.625 8.26663L20.625 29.6166Z" fill="#F5D15F"/>
<path d="M37.9501 16.6666C37.7751 16.6666 37.4251 16.4916 37.2501 16.3166C36.9001 15.9666 36.9001 15.4416 37.2501 15.0916L40.7501 11.9416C41.1001 11.5916 41.6251 11.5916 41.9751 11.9416C42.3251 12.2916 42.3251 12.8166 41.9751 13.1666L38.4751 16.3166C38.4751 16.6666 38.3001 16.6666 37.9501 16.6666Z" fill="#F2E8C9"/>
</svg>
