<svg width="57" height="48" viewBox="0 0 57 48" fill="none" xmlns="http://www.w3.org/2000/svg">
<path d="M29.6425 47.2418C29.0197 47.2418 28.6045 46.8266 28.6045 46.2038V21.7064C28.6045 21.0836 29.0197 20.6684 29.6425 20.6684C30.2653 20.6684 30.6805 21.0836 30.6805 21.7064V46.2038C30.6805 46.619 30.2653 47.2418 29.6425 47.2418Z" fill="#F2E8C9"/>
<path d="M45.4206 47.2416C45.0054 47.2416 44.7978 47.034 44.5902 46.8264L28.8122 22.329C28.6046 21.9138 28.6046 21.291 29.2274 20.8758C29.8502 20.4606 30.2654 20.6682 30.6806 21.291L46.4586 45.7883C46.6662 46.2036 46.6662 46.8264 46.0434 47.2416C45.8358 47.034 45.6282 47.2416 45.4206 47.2416Z" fill="#F2E8C9"/>
<path d="M14.0722 47.2416C13.8646 47.2416 13.657 47.2416 13.4494 47.034C13.0342 46.8264 12.8266 45.996 13.0342 45.5808L28.8121 21.0834C29.0197 20.6682 29.8501 20.4606 30.2654 20.6682C30.6806 20.8758 30.8882 21.7062 30.6806 22.1214L14.9026 46.6188C14.695 47.034 14.2798 47.2416 14.0722 47.2416Z" fill="#F2E8C9"/>
<path d="M52.0638 12.1565C51.6486 12.1565 51.2334 11.9489 51.0258 11.5337L48.327 4.89031C48.1193 4.2675 48.327 3.85229 48.9498 3.64469L50.403 3.02187C51.441 2.60666 52.6867 2.60666 53.7247 3.02187C54.7627 3.43708 55.5931 4.2675 56.0083 5.51313L56.2159 5.92834C57.0464 8.21199 56.0083 10.7033 53.7247 11.5337L52.2714 12.1565H52.0638ZM50.6106 5.09792L52.479 9.87283L53.1019 9.66523C54.3475 9.25002 54.9703 7.79678 54.3475 6.75876L54.1399 6.34355C54.1399 5.51313 53.5171 5.09792 53.1019 4.89031C52.479 4.68271 51.8562 4.68271 51.2334 4.89031L50.6106 5.09792Z" fill="#F2E8C9"/>
<path d="M3.89956 30.6334C3.69195 30.6334 3.69196 30.6334 3.48435 30.6334C3.27675 30.4258 3.06914 30.2182 2.86154 30.0106L0.577882 23.7824C0.370278 23.1596 0.577882 22.7444 1.2007 22.5368L15.5254 16.9315C16.1482 16.7239 16.5635 16.9315 16.7711 17.5543L19.0547 23.5748C19.0547 23.7824 19.0547 24.1976 19.0547 24.4052C18.8471 24.6128 18.6395 24.8204 18.4319 25.028L4.10716 30.6334C4.10716 30.6334 4.10716 30.6334 3.89956 30.6334ZM2.86154 23.99L4.52237 28.1421L16.9787 23.3672L15.3178 19.2151L2.86154 23.99Z" fill="#F5D15F"/>
<path d="M18.8471 26.6887C18.6395 26.6887 18.6395 26.6887 18.4319 26.6887C18.2243 26.4811 18.0167 26.2735 17.8091 26.0659L14.0722 16.7237C13.8646 16.1009 14.0722 15.6856 14.695 15.478L29.0198 9.87271C29.2274 9.87271 29.6426 9.87271 29.8502 9.87271C30.0578 10.0803 30.2654 10.2879 30.473 10.4955L34.2099 19.8377C34.4175 20.4606 34.2099 20.8758 33.5871 21.0834L19.2623 26.6887C19.2623 26.6887 19.0547 26.6887 18.8471 26.6887ZM16.5635 16.7237L19.4699 24.1974L31.9262 19.4225L29.0198 11.9488L16.5635 16.7237Z" fill="#F5D15F"/>
<path d="M34.0023 22.7443C33.5871 22.7443 33.1719 22.5367 32.9643 22.1215L27.9818 9.25001C27.9818 9.0424 27.9818 8.62719 27.9818 8.41959C28.1894 8.21198 28.397 8.00438 28.6046 7.79677L47.9118 0.322998C48.1194 0.322998 48.5346 0.322998 48.7422 0.322998C48.9498 0.530603 49.1574 0.738208 49.3651 0.945813L54.3476 13.8173C54.5552 14.4401 54.3476 14.8553 53.7248 15.0629L34.4175 22.5367C34.2099 22.7443 34.0023 22.7443 34.0023 22.7443ZM30.2654 9.45761L34.4175 20.2531L51.6487 13.6097L47.4966 2.81426L30.2654 9.45761Z" fill="#F5D15F"/>
</svg>
