<svg width="454" height="472" viewBox="0 0 454 472" fill="none" xmlns="http://www.w3.org/2000/svg">
<g filter="url(#filter0_d_237_188)">
<path d="M226.944 427.597C335.775 427.597 424 339.372 424 230.541C424 121.71 335.775 33.4847 226.944 33.4847C118.113 33.4847 29.8878 121.71 29.8878 230.541C29.8878 339.372 118.113 427.597 226.944 427.597Z" fill="url(#paint0_linear_237_188)"/>
<path opacity="0.244001" fill-rule="evenodd" clip-rule="evenodd" d="M391.759 338.593C356.543 392.201 295.877 427.596 226.943 427.596C206.964 427.596 187.679 424.623 169.507 419.094C182.607 413.384 205.388 403.192 214.259 397.611C223.228 391.969 231.463 386.592 239.172 381.558C265.746 364.208 286.067 350.939 308.647 344.954C353.975 332.941 381.88 336.511 391.759 338.593Z" fill="url(#paint1_linear_237_188)"/>
<path opacity="0.506975" fill-rule="evenodd" clip-rule="evenodd" d="M386.726 345.892C375.966 347.351 363.826 349.661 350.454 353.204C298.686 366.92 246.493 417.204 236.329 427.376C298.219 424.474 352.643 393.022 386.726 345.892Z" fill="url(#paint2_linear_237_188)"/>
<path opacity="0.193522" fill-rule="evenodd" clip-rule="evenodd" d="M394.873 127.382C360.192 71.0445 297.954 33.4839 226.943 33.4839C215.103 33.4839 203.507 34.5281 192.242 36.5295C201.656 69.252 224.618 126.666 268.102 116.93C321.754 104.917 328.195 110.025 356.409 132.401C359.884 135.157 363.69 138.175 367.955 141.456C384.854 154.454 392.091 143.7 394.873 127.382Z" fill="url(#paint3_linear_237_188)"/>
<path opacity="0.150902" fill-rule="evenodd" clip-rule="evenodd" d="M375.045 100.548C338.93 59.4343 285.967 33.4839 226.943 33.4839C221.974 33.4839 217.047 33.6679 212.169 34.0294C219.644 60.1462 238.008 106.419 272.898 98.6057C315.79 88.9998 320.94 93.0847 343.495 110.977C346.273 113.181 349.316 115.595 352.726 118.218C368.355 130.243 373.647 116.846 375.045 100.548Z" fill="url(#paint4_linear_237_188)"/>
<path opacity="0.477214" fill-rule="evenodd" clip-rule="evenodd" d="M175.139 40.364C91.4394 63.1101 29.8873 139.637 29.8873 230.54C29.8873 310.019 76.9404 378.507 144.71 409.67C223.925 382.16 280.788 306.859 280.788 218.277C280.788 141.512 238.086 74.7219 175.139 40.364Z" fill="url(#paint5_linear_237_188)"/>
<path opacity="0.180315" fill-rule="evenodd" clip-rule="evenodd" d="M116.047 393.453C151.86 409.56 189.235 391.335 235.636 368.707C275.422 349.305 321.845 326.666 379.611 319.66C388.949 318.527 397.454 316.837 405.188 314.671C417.252 289.157 423.999 260.636 423.999 230.54C423.999 210.589 421.034 191.33 415.521 173.181C409.299 175.151 403.048 177.615 397.018 179.992C381.276 186.198 367.043 191.808 358.772 186.48C351.474 181.78 350.294 174.211 348.992 165.858C347.094 153.686 344.937 139.845 323.209 130.78C305.9 123.558 284.724 126.404 265.388 129.002C243.797 131.903 224.501 134.496 215.449 122.417C198.292 99.5223 172.783 69.125 109.86 123.906C49.4998 176.456 39.764 303.418 82.9303 365.045C92.8718 375.685 103.978 385.222 116.047 393.453Z" fill="url(#paint6_linear_237_188)"/>
<path fill-rule="evenodd" clip-rule="evenodd" d="M420.304 192.362C398.135 204.806 368.675 225.718 376.356 245.763C382.426 261.604 375.097 274.882 369.22 285.528C363.488 295.912 359.137 303.794 369.946 309.112C377.818 312.985 391.102 314.697 404.889 315.302C417.141 289.627 423.999 260.884 423.999 230.54C423.999 217.478 422.729 204.713 420.304 192.362Z" fill="url(#paint7_linear_237_188)"/>
<path d="M387.095 156.388C395.624 158.046 401.742 163.479 400.762 168.522C400.525 169.739 399.897 170.822 398.96 171.742C400.281 173.166 400.925 174.777 400.622 176.335C399.918 179.957 394.366 181.925 388.222 180.731C382.664 179.651 378.525 176.352 378.308 173.051C372.665 170.619 369.114 166.451 369.879 162.519C370.859 157.475 378.567 154.731 387.095 156.388Z" fill="url(#paint8_linear_237_188)"/>
<path opacity="0.547224" d="M386.108 157.92C394.637 159.577 400.755 165.01 399.775 170.053C399.538 171.27 398.91 172.353 397.973 173.273C399.294 174.697 399.938 176.308 399.635 177.866C398.931 181.488 393.379 183.457 387.235 182.262C381.677 181.182 377.538 177.883 377.321 174.582C371.678 172.151 368.127 167.982 368.892 164.05C369.872 159.007 377.58 156.262 386.108 157.92Z" fill="black" fill-opacity="0.28827"/>
<path d="M392.497 156.749C401.552 158.509 408.053 164.258 407.017 169.59C406.767 170.877 406.101 172.021 405.106 172.993C406.51 174.5 407.195 176.203 406.875 177.851C406.231 181.161 401.741 183.161 396.321 182.823C400.865 182.643 404.417 180.744 404.984 177.828C405.304 176.18 404.619 174.477 403.216 172.97C404.21 171.998 404.876 170.854 405.126 169.567C406.162 164.235 399.661 158.486 390.606 156.726C389.255 156.463 387.925 156.305 386.634 156.242C388.499 156.195 390.476 156.356 392.497 156.749Z" fill="black" fill-opacity="0.28827"/>
<path d="M258.55 82.7126C265.121 85.2062 270.737 80.4472 270.737 79.2795C270.737 78.1118 265.891 77.1652 259.912 77.1652C253.933 77.1652 249.086 78.1118 249.086 79.2795C249.086 80.4472 251.979 80.2191 258.55 82.7126Z" fill="black" fill-opacity="0.28827"/>
<path d="M247.992 78.068C249.472 81.5472 255.083 77.3087 256.297 78.8867C257.511 80.4647 256.896 81.8081 259.635 82.1372C262.374 82.4664 262.644 79.4641 265.338 79.299C268.032 79.134 269.629 79.7485 270.567 76.9252C271.506 74.1019 267.166 72.9311 266.944 71.79C266.722 70.6489 266.807 67.6894 264.901 67.2462C262.995 66.803 262.223 66.8594 257.873 69.426C253.523 71.9926 246.511 74.5887 247.992 78.068Z" fill="url(#paint9_linear_237_188)"/>
<path opacity="0.180315" d="M257.69 69.5306L258.499 69.0575C262.302 66.853 263.09 66.823 264.9 67.2441C265.321 67.3418 265.644 67.5619 265.895 67.8578C264.848 67.7354 263.71 67.9228 262.482 68.4199L262.288 68.5019C260.549 69.2652 255.725 72.0248 247.816 76.7806C248.243 73.9727 253.891 71.7364 257.69 69.5306Z" fill="url(#paint10_linear_237_188)"/>
<path d="M266.618 69.5239L266.628 69.5693C266.807 70.4143 266.845 71.2807 266.944 71.7878C266.977 71.9613 267.106 72.1354 267.297 72.316C266.281 72.462 265.638 72.7789 265.369 73.2664C264.488 74.8592 266.086 75.7292 265.723 77.5405C265.633 77.9928 265.417 78.587 265.076 79.323C262.623 79.6599 262.282 82.4531 259.635 82.135C257.602 81.8908 257.417 81.0882 256.96 80.0458C257.997 79.7078 258.734 79.2973 259.172 78.8139C260.436 77.4213 259.109 72.4072 261.747 70.7599C262.973 69.9943 264.597 69.5823 266.618 69.5239Z" fill="black" fill-opacity="0.28827"/>
<path opacity="0.150902" d="M351.817 103.194C354.86 105.022 357.99 105.401 358.808 104.039C359.626 102.678 357.159 101.196 354.779 98.2642C352.4 95.3324 348.607 96.0573 347.789 97.4186C346.971 98.7798 348.775 101.365 351.817 103.194Z" fill="url(#paint11_linear_237_188)"/>
<path d="M351.295 104.064C354.337 105.892 357.467 106.271 358.285 104.909C359.103 103.548 356.69 101.977 354.257 99.1342C351.824 96.291 348.084 96.9272 347.266 98.2885C346.448 99.6498 348.252 102.235 351.295 104.064Z" fill="url(#paint12_linear_237_188)"/>
<path opacity="0.129255" d="M155.549 130.179C184.628 130.179 159.792 159.162 192.34 159.162C232.075 159.162 210.251 187.277 238.772 185.155C267.292 183.033 260.559 219.468 281.099 210.642C301.639 201.817 330.276 212.286 345.419 249.862C352.992 268.652 328.596 325.392 266.756 331.374C204.916 337.356 164.435 412.041 122.136 387.379C27.1026 331.973 103.568 130.179 155.549 130.179Z" fill="url(#paint13_linear_237_188)"/>
<path opacity="0.134673" d="M324.057 196.068C322.357 199.952 323.393 204.565 331.218 206.405C339.043 208.245 361.594 203.985 349.426 202.716C329.576 200.646 337.055 189.099 333.687 189.099C330.319 189.099 325.756 192.183 324.057 196.068Z" fill="url(#paint14_linear_237_188)"/>
<path fill-rule="evenodd" clip-rule="evenodd" d="M138.633 187.374C167.961 181.2 156.89 212.05 162.325 217.729C181.574 237.844 211.669 191.268 232.292 217.729C252.915 244.191 291.634 225.867 307.758 240.661C334.921 265.585 315.765 292.067 237.924 318.436C202.059 330.585 180.338 361.357 150.326 367.696C73.7536 383.871 104.369 194.588 138.633 187.374Z" fill="#F2F49F" fill-opacity="0.0742188" stroke="#A75151" stroke-opacity="0.448836" stroke-width="1.29076"/>
<path fill-rule="evenodd" clip-rule="evenodd" d="M268.367 272.796C265.462 283.763 287.336 284.216 292.755 265.609C298.175 247.002 271.272 261.828 268.367 272.796Z" fill="#F2F49F" fill-opacity="0.0742188" stroke="#A75151" stroke-opacity="0.448836" stroke-width="1.29076"/>
<path fill-rule="evenodd" clip-rule="evenodd" d="M158.52 351.206C188.522 335.806 175.907 316.143 211.948 313.564C247.988 310.985 234.779 289.05 253.66 271.066C272.541 253.081 230.992 268.847 220.851 251.465C210.71 234.083 186.233 272.811 141.693 256.089C127.624 250.807 120.789 292.405 123.306 316.394C125.925 341.342 143.225 359.056 158.52 351.206Z" fill="#F2F49F" fill-opacity="0.0742188" stroke="#A75151" stroke-opacity="0.448836" stroke-width="1.29076"/>
<path opacity="0.0602679" d="M236.523 172.133C248.489 177.883 259.126 163.217 268.102 173.792C277.079 184.368 284.325 201.466 311.241 185.027C338.157 168.588 326.46 141.566 304.798 137.299C283.137 133.033 251.324 144.723 232.802 141.105C214.28 137.487 217.727 130.179 204.054 130.179C190.381 130.179 183.552 151.523 204.054 151.523C224.557 151.523 224.557 166.383 236.523 172.133Z" fill="url(#paint15_linear_237_188)"/>
<path d="M285.333 176.569C290.424 176.569 294.551 174.865 294.551 172.763C294.551 170.662 290.424 168.958 285.333 168.958C280.242 168.958 276.114 170.662 276.114 172.763C276.114 174.865 280.242 176.569 285.333 176.569Z" fill="black" fill-opacity="0.28827"/>
<path d="M287.449 171.641C286.763 171.909 282.268 176.299 280.011 175.544C277.754 174.789 273.365 171.688 274.238 170.176C275.11 168.664 278.161 167.482 277.471 165.881C276.782 164.279 279.251 163.871 279.251 163.871C279.251 163.871 278.549 162.708 279.691 162.037C280.832 161.366 289.826 158.82 290.551 159.955C291.276 161.09 289.736 162.686 289.736 162.686C289.736 162.686 292.763 164.65 292.562 165.708C292.361 166.766 291.705 167.254 291.514 168.542C291.323 169.83 290.967 171.899 289.933 171.976C288.898 172.053 288.134 171.373 287.449 171.641Z" fill="url(#paint16_linear_237_188)"/>
<path opacity="0.180315" d="M280.152 164.55C280.674 165.061 280.244 166.109 278.86 167.694C279.01 166.707 279.052 165.958 278.985 165.448C278.938 165.091 278.806 164.614 278.59 164.019C278.787 163.961 279.008 163.912 279.251 163.871C279.228 163.833 279.206 163.794 279.186 163.756C279.541 164.003 279.862 164.268 280.152 164.55Z" fill="url(#paint17_linear_237_188)"/>
<path opacity="0.180315" d="M289.736 162.686C290.3 163.052 290.78 163.394 291.176 163.713L288.495 167.837C288.094 166.179 287.961 165.022 288.097 164.366C288.198 163.878 288.772 163.288 289.82 162.596L289.736 162.686Z" fill="url(#paint18_linear_237_188)"/>
<path d="M280.011 175.544C278.791 175.136 276.949 174.043 275.651 172.886C277.213 172.775 280.199 173.288 280.965 173.413C282.049 173.59 282.675 171.287 283.459 170.635C283.905 170.264 285.209 170.612 287.37 171.679C286.478 172.185 282.196 176.275 280.011 175.544Z" fill="black" fill-opacity="0.28827"/>
</g>
<path opacity="0.338611" d="M187.558 204.916C198.409 204.916 207.205 197.981 207.205 189.426C207.205 180.87 198.409 173.935 187.558 173.935C176.708 173.935 167.911 180.87 167.911 189.426C167.911 197.981 176.708 204.916 187.558 204.916Z" fill="black" fill-opacity="0.28827"/>
<path d="M212.272 27.6539L231.725 30.2286C239.545 31.2775 245.457 37.7618 245.743 45.5811L246.887 71.1369C247.078 76.0955 244.98 80.9587 241.166 84.2009L232.393 91.6388L211.033 88.3013L212.272 27.6539Z" fill="#0F1E70"/>
<path d="M223.518 30.0864C229.164 31.4397 233.466 33.3422 236.425 35.7939C240.862 39.4714 242.898 43.1185 244.038 45.5811C245.178 48.0436 246.48 54.6887 243.504 59.0128L243.019 59.7241C240.334 63.7041 238.742 66.867 239.322 71.4594L239.394 72.0083C239.751 74.6644 240.434 78.6483 241.441 83.9599L241.166 84.2008L233.562 90.646L211.594 60.8068L212.079 37.0666L223.518 30.0864Z" fill="black" fill-opacity="0.28827"/>
<path d="M198.362 92.427C201.604 108.733 203.893 118.65 205.419 122.083C207.707 127.233 219.722 158.107 220.676 158.679C221.153 158.965 221.915 158.965 222.106 159.156C222.392 159.347 222.392 160.014 222.201 160.11C222.106 160.3 213.81 167.738 213.047 169.455C212.284 171.076 212.761 175.462 217.052 174.89C221.343 174.318 221.82 171.076 223.823 170.122C225.825 169.169 231.547 166.785 231.547 164.973C231.547 163.161 229.163 158.679 229.639 158.107C230.116 157.535 230.307 157.63 230.307 155.437C230.307 153.244 229.353 137.436 227.828 133.335C226.302 129.235 225.73 128.568 225.253 126.279C224.967 124.753 224.585 112.547 224.204 89.6617L198.362 92.427Z" fill="#5428C6"/>
<path d="M229.735 158.202C229.449 158.965 231.642 163.256 231.642 164.972C231.642 166.784 226.016 169.168 223.918 170.122C221.915 171.075 221.343 174.318 217.147 174.89C212.856 175.462 212.38 171.075 213.142 169.454C213.905 167.833 222.106 160.3 222.297 160.109C222.392 160.014 222.392 159.632 222.297 159.346C223.536 159.442 224.681 159.442 225.92 159.251C227.16 159.06 228.4 158.774 229.735 158.202Z" fill="#0F1E70"/>
<path d="M231.642 164.973C231.642 166.785 226.016 169.169 223.918 170.122C221.915 171.076 221.343 174.318 217.147 174.89C216.679 174.952 216.257 174.956 215.876 174.91L216.126 174.804C217.843 174.072 218.981 173.501 219.541 173.09C221.148 171.91 222.274 170.118 222.904 169.584C224.454 168.274 226.673 167.624 228.735 166.232C229.746 165.548 230.659 164.771 231.473 163.899C231.578 164.312 231.642 164.68 231.642 164.973Z" fill="#3D68B2"/>
<path d="M225.253 121.988C225.348 124.467 225.444 125.897 225.539 126.374C223.346 127.709 221.153 129.044 219.055 130.284C216.861 131.619 214.191 132.477 211.14 132.859C208.565 128.091 206.372 123.8 205.514 122.083C205.132 121.225 204.751 120.081 204.274 118.555C205.609 118.364 207.421 118.269 209.71 118.269C213.238 118.269 218.387 119.509 225.253 121.988Z" fill="#0F1E70"/>
<path d="M207.696 32.9936C206.17 32.5168 204.835 32.8029 203.595 34.0426C201.783 35.8543 194.632 53.9723 193.392 55.1166C192.152 56.2608 190.531 59.3123 190.054 60.9334C189.482 62.5544 177.797 78.6283 177.797 81.6797C177.797 83.6822 178.144 85.3449 182.245 86.9659L201.694 68.1461L207.696 32.9936Z" fill="#0B1E8A"/>
<path d="M219.488 31.4212C230.263 33.233 236.843 36.9519 239.322 42.3873C237.224 51.923 236.175 60.0284 236.175 66.4174C236.175 76.1438 239.227 83.4864 238.559 85.3935C237.892 87.396 234.649 88.9217 234.649 90.7335C234.649 92.5453 236.175 94.1664 236.175 99.7925C236.175 105.323 225.59 124.395 225.59 129.258C225.59 134.121 226.353 138.889 225.59 143.943C224.828 148.997 220.25 158.914 219.583 161.966C218.915 165.017 219.392 166.257 218.343 166.924C217.676 167.306 217.294 167.687 217.199 167.782V177.89C217.199 178.653 214.052 182.467 212.622 184.088C211.191 185.71 203.754 191.336 199.939 188.761C196.125 186.186 200.798 181.609 203.658 178.653C206.519 175.697 207.854 175.22 207.854 170.452C207.854 167.878 207.854 166.829 207.854 167.496C206.71 166.447 206.042 165.589 206.042 164.731C206.042 163.491 205.851 134.217 206.805 128.495C207.473 124.681 209.38 114.859 212.527 99.0296L201.656 96.6457C200.893 72.0435 200.893 57.6445 201.656 53.6395C202.419 49.6345 204.135 42.7687 206.519 32.9469C209.856 30.9444 214.148 30.4676 219.488 31.4212Z" fill="#E3EFF9"/>
<path d="M219.488 31.4212C230.263 33.233 236.843 36.9519 239.322 42.3873C237.224 51.923 236.175 60.0284 236.175 66.4174C236.175 76.1438 239.227 83.4864 238.559 85.3935C237.892 87.396 234.649 88.9217 234.649 90.7335C234.649 92.5453 236.175 94.1664 236.175 99.7925C236.175 105.323 225.59 124.395 225.59 129.258C225.59 134.121 226.353 138.889 225.59 143.943C224.828 148.997 220.25 158.914 219.583 161.966C218.915 165.017 219.392 166.257 218.343 166.924C217.676 167.306 217.294 167.687 217.199 167.782V177.89C217.199 178.653 214.052 182.467 212.622 184.088C211.191 185.71 203.754 191.336 199.939 188.761C196.125 186.186 200.798 181.609 203.658 178.653C206.519 175.697 207.854 175.22 207.854 170.452C207.854 167.878 207.854 166.829 207.854 167.496C206.71 166.447 206.042 165.589 206.042 164.731C206.042 163.491 205.851 134.217 206.805 128.495C207.473 124.681 209.38 114.859 212.527 99.0296L201.656 96.6457C200.893 72.0435 199.858 57.3258 200.621 53.3207C201.384 49.3157 204.135 42.7687 206.519 32.9469C209.856 30.9444 214.148 30.4676 219.488 31.4212Z" fill="#457CFF"/>
<path d="M204.721 40.8171L204.462 42.1238C203.241 48.346 202.455 53.2148 202.104 56.7303L201.847 59.5273C201.756 60.4844 201.657 61.4798 201.551 62.5134C205.983 65.1714 213.771 64.8046 216.978 63.0934C222.076 60.3728 226.446 55.176 230.087 47.503L236.382 61.1712C236.244 63.0295 236.175 64.7798 236.175 66.4173C236.175 72.6475 237.427 77.8995 238.152 81.3715L211.316 105.13L212.527 99.0296L200.495 96.967C200.19 87.8956 200.036 78.3497 200.161 69.3109C198.439 63.2861 198.206 58.2048 199.46 54.0676C200.82 49.5861 202.573 45.1693 204.721 40.8171Z" fill="black" fill-opacity="0.28827"/>
<path d="M211.595 105.13C211.595 105.13 220.526 96.8603 225.539 96.0136C230.552 95.1669 236.165 96.3602 236.165 96.3602L234.178 89.6152C234.178 89.6152 229.589 89.4312 224.767 90.707C219.945 91.9827 211.796 99.0536 211.796 99.0536H207.695L211.595 105.13Z" fill="#0F1E70"/>
<path d="M217.294 167.592C217.199 167.687 217.104 167.783 217.104 167.878V177.891C217.104 178.653 213.957 182.468 212.527 184.089C211.096 185.71 203.658 191.336 199.844 188.761C196.03 186.187 200.702 181.609 203.563 178.653C206.424 175.697 207.759 175.221 207.759 170.453V167.497C208.903 167.878 210.238 168.069 211.668 168.069C213.289 168.069 215.197 167.878 217.294 167.592Z" fill="#0F1E70"/>
<path d="M217.104 176.915L217.104 177.89C217.104 178.653 213.957 182.467 212.526 184.088L212.372 184.254C210.628 186.058 203.537 191.254 199.844 188.761C199.255 188.363 198.869 187.918 198.647 187.439C200.157 188.243 201.488 188.576 202.64 188.44C204.689 188.199 209.312 186.048 211.426 183.693L211.927 183.128C213.165 181.715 214.891 179.645 217.104 176.915Z" fill="#3D68B2"/>
<path d="M225.877 127.446C225.686 128.209 225.591 128.877 225.591 129.354C225.591 130.689 225.686 131.928 225.686 133.168C219.964 135.361 215.673 136.315 212.813 136.219C210.429 136.124 208.331 135.743 206.424 135.075C206.519 132.024 206.71 129.64 206.9 128.305C207.091 127.065 207.473 125.158 207.949 122.488C210.238 122.297 212.527 122.202 215.006 122.488C218.057 122.774 221.681 124.395 225.877 127.446Z" fill="#0F1E70"/>
<path d="M211.124 105.754L228.617 89.592H210.938L206.424 98.8163L211.124 105.754Z" fill="black" fill-opacity="0.28827"/>
<path d="M224.112 32.9973L218.612 42.6755C218.421 42.9616 218.04 43.1523 217.754 43.057L214.035 42.3895C213.558 42.2941 213.272 41.9127 213.368 41.4359L214.372 32.7756C215.611 32.871 216.659 34.2333 218.089 34.5193C219.71 34.9961 222.586 32.6159 224.112 32.9973Z" fill="#0B1E8A"/>
<path fill-rule="evenodd" clip-rule="evenodd" d="M222.857 33.7565L218.375 41.5758C218.185 41.8618 217.803 42.0526 217.517 41.9572L213.798 41.2897C213.321 41.1943 213.035 40.8129 213.131 40.3361L214.084 32.1354C215.324 32.2307 216.659 32.3261 218.089 32.6122C219.71 33.089 221.331 33.375 222.857 33.7565Z" fill="#BAC8FF"/>
<path d="M202.506 47.2683L200.529 54.3538C200.434 54.7352 200.529 55.0213 200.911 55.3073C202.27 55.9748 203.148 56.9312 207.602 58.121C210.729 58.9562 216.32 59.5648 219.375 59.8534C220.633 59.9723 221.796 59.2029 222.201 58.0056L224.087 52.4438C224.366 51.6197 223.826 50.7453 222.964 50.6267C219.99 50.2174 213.857 49.3572 211.577 48.9186C207.023 48.042 205.024 46.6364 203.46 46.6008C202.983 46.6008 202.602 46.8869 202.506 47.2683Z" fill="#E7F0F8"/>
<path d="M197.154 56.812L217.846 60.5309C218.705 60.7216 219.277 61.3891 219.277 62.2474V84.9424C219.277 85.4192 219.086 85.896 218.705 86.2774L203.638 98.8646C203.257 99.2461 202.685 99.3414 202.208 99.2461L179.322 94.2875C178.559 94.0967 177.987 93.4292 177.987 92.6664V69.5899C177.987 69.0177 178.273 68.4456 178.75 68.1595L196.01 57.1934C196.296 56.812 196.677 56.7166 197.154 56.812Z" fill="#D0D4FF"/>
<path d="M218.61 60.9125C218.991 61.1985 219.277 61.6753 219.277 62.2475V84.9426C219.277 85.4193 219.086 85.8961 218.705 86.2776L203.638 98.8647C203.448 99.0555 203.257 99.1508 202.971 99.2462V74.93C202.971 74.2625 203.257 73.6904 203.734 73.3089L218.61 60.9125Z" fill="#3D68B2"/>
<path d="M202.876 99.151C202.59 99.2463 202.303 99.2463 202.017 99.151L179.132 94.1924C178.369 94.0017 177.797 93.3342 177.797 92.5713V69.4948C177.797 69.2087 177.892 68.8273 178.083 68.6366L201.922 73.6905C202.494 73.7859 202.971 74.358 202.971 74.9302V99.151H202.876Z" fill="#F8FCFF"/>
<path d="M236.207 39.0015C241.261 37.7619 244.217 49.4909 241.547 54.6402C238.877 59.7895 231.249 75.2374 230.2 76.8584C229.055 78.4795 217.04 90.1131 215.038 90.9713C213.035 91.8296 211.986 90.7806 211.51 91.3528C211.033 91.9249 210.175 92.4971 210.175 93.546C210.175 94.5949 210.747 94.7856 210.461 95.6439C210.175 96.5021 208.458 101.937 207.6 102.986C206.742 104.035 198.923 106.991 197.301 105.18C195.68 103.368 200.258 95.5485 199.876 95.1671C199.399 94.6903 198.732 96.5021 197.111 96.8835C195.49 97.2649 195.013 96.1206 195.299 95.8346C195.585 95.5485 198.446 93.1646 199.018 91.8296C199.685 90.4946 202.832 89.1596 203.786 89.1596C204.739 89.1596 205.884 88.1106 205.884 87.3478C205.884 86.5849 205.407 85.3453 205.884 84.6778C206.36 84.0103 217.517 69.3252 219.043 69.3252C220.473 69.3252 220.759 67.9902 220.759 67.132C220.664 66.4645 228.865 40.8133 236.207 39.0015Z" fill="#0B1E8A"/>
<path d="M211.796 91.2573C211.7 91.2573 211.605 91.3526 211.51 91.3526C211.033 91.8294 210.175 92.4969 210.175 93.5459C210.175 94.5948 210.747 94.7855 210.461 95.6437C210.175 96.5019 208.458 101.937 207.6 102.986C206.742 104.035 198.923 106.991 197.301 105.179C195.68 103.368 200.258 95.5484 199.876 95.1669C199.399 94.6901 198.732 96.5019 197.111 96.8834C195.49 97.2648 195.013 96.1205 195.299 95.8344C195.585 95.5484 198.446 93.1644 199.018 91.8294C199.685 90.4944 202.832 89.1594 203.786 89.1594C204.739 89.1594 205.884 88.1105 205.884 87.3476C205.884 87.2523 205.884 87.0615 205.884 86.9662C206.837 88.0151 207.695 88.778 208.363 89.2548C209.03 89.9223 210.175 90.5898 211.796 91.2573Z" fill="#0F1E70"/>
<path d="M237.715 54.0678C239.821 54.0678 241.529 51.9759 241.529 49.3953C241.529 46.8147 239.821 44.7228 237.715 44.7228C235.608 44.7228 233.901 46.8147 233.901 49.3953C233.901 51.9759 235.608 54.0678 237.715 54.0678Z" fill="#0F1E70"/>
<path d="M238.954 54.0678C241.061 54.0678 242.769 51.9759 242.769 49.3953C242.769 46.8147 241.061 44.7228 238.954 44.7228C236.848 44.7228 235.14 46.8147 235.14 49.3953C235.14 51.9759 236.848 54.0678 238.954 54.0678Z" fill="#E7F0F8"/>
<path d="M216.945 34.7105C218.852 35.1872 221.808 34.6151 225.527 32.994C225.146 31.8497 224.955 30.7055 224.955 29.3704C224.955 27.3679 226.195 22.8861 226.862 20.4068C227.53 17.9276 227.53 12.0154 224.669 9.91752C221.808 7.7243 215.563 7.25988 212.062 8.44691C207.725 9.91752 208.818 11.6901 208.555 15.5615C208.293 19.4329 208.916 29.0898 210.157 30.0866C211.397 31.0834 214.709 31.4419 214.232 31.7279C214.804 32.8722 215.038 34.2337 216.945 34.7105Z" fill="#FFA877"/>
<path d="M219.73 34.7771L219.552 34.8001C218.543 34.9211 217.668 34.8911 216.945 34.7103C215.114 34.2526 214.825 32.9796 214.299 31.8661L214.232 31.7278C215.588 32.2925 217.372 32.2058 219.582 31.4675L219.917 31.3518C222.059 30.588 221.997 31.7297 219.73 34.7771Z" fill="black" fill-opacity="0.28827"/>
<path d="M214.674 7.21346C218.052 7.21346 223.619 6.76535 226.288 8.85971C228.957 10.9541 228.957 16.5997 228.334 18.8762C227.89 20.6063 225.665 24.3398 224.598 26.9805L224.509 27.0716C225.932 20.4242 225.932 16.5997 224.509 15.7802C222.374 14.5054 221.751 19.9689 220.95 19.9689C220.149 19.9689 221.395 14.8696 219.883 14.0501C219.246 13.7051 217.088 13.4356 214.419 14.0501C212.675 14.4514 207.695 14.0501 207.695 14.0501C207.695 14.0501 208.496 7.21346 214.674 7.21346Z" fill="#0D134E"/>
<path d="M176.148 79.7871C175.539 81.2894 174.829 85.4869 176.057 88.0426C177.284 90.5983 178.876 92.061 180.673 92.7351C182.165 93.2494 184.941 90.4648 184.427 88.3135C183.863 85.688 179.402 83.3763 178.953 82.7524C178.503 82.1284 177.855 81.4295 178.564 80.8756C179.811 79.9774 181.079 79.2688 180.98 78.3205C180.81 76.7083 176.672 78.3897 176.148 79.7871Z" fill="#0F1E70"/>
<path d="M236.106 18.5947C236.106 28.44 228.125 36.4211 218.28 36.4211C208.435 36.4211 200.454 28.44 200.454 18.5947C200.454 8.74946 208.435 0.768307 218.28 0.768307C228.125 0.768307 236.106 8.74946 236.106 18.5947Z" fill="#0B1E8A" fill-opacity="0.19" stroke="#ECEAFE" stroke-width="1.53661"/>
<path opacity="0.504464" fill-rule="evenodd" clip-rule="evenodd" d="M206.676 12.5723C207.396 10.8756 207.194 9.16652 206.224 8.75497C205.255 8.34342 203.885 9.38525 203.164 11.082C202.444 12.7787 202.646 14.4878 203.616 14.8994C204.586 15.3109 205.955 14.2691 206.676 12.5723Z" fill="white"/>
<path d="M32.6521 278.969C45.1719 278.969 55.3212 272.034 55.3212 263.478C55.3212 254.923 45.1719 247.988 32.6521 247.988C20.1322 247.988 9.98291 254.923 9.98291 263.478C9.98291 272.034 20.1322 278.969 32.6521 278.969Z" fill="black" fill-opacity="0.180698"/>
<path d="M49.9803 175.923L47.4645 171.235C45.0631 166.889 40.1458 164.602 35.2285 165.631L19.6762 168.948C14.9876 169.977 11.4426 173.865 10.8708 178.668L6.06789 220.636C5.49612 225.782 8.58371 230.7 13.3866 232.529L31.7978 239.162L49.9803 175.923Z" fill="#0F1E70"/>
<path d="M41.04 207.018L38.6088 165.728L37.3993 166.17C25.4798 170.563 18.8351 174.025 17.4653 176.553L17.4012 176.679C15.5575 180.535 12.3603 180.094 11.4622 187.134L10.1784 198.152C8.98593 208.599 7.59986 222.403 8.48078 226.895C8.66161 227.817 8.90422 228.772 9.20861 229.758C10.361 230.957 11.7775 231.916 13.3866 232.529L21.3915 235.413L37.4859 219.381L41.04 207.018Z" fill="black" fill-opacity="0.28827"/>
<path d="M36.372 169.062C33.7418 170.32 28.2528 173.636 20.0192 179.011C23.4498 251.97 25.2795 289.593 25.7369 291.765C26.3087 295.082 17.8464 334.42 18.99 337.393C20.1335 340.252 22.1919 342.425 23.5642 343.225C24.9364 344.026 21.9632 351.001 21.9632 352.374C21.9632 353.746 20.8197 361.637 21.2771 364.152C21.7345 366.668 21.9632 370.785 27.2236 370.785C32.4839 370.785 33.5131 366.897 32.9413 363.009C32.3695 359.006 32.1408 358.892 32.9413 356.605C33.7418 354.318 33.0557 353.86 32.2552 350.43C31.3403 346.885 31.9121 342.425 32.9413 341.739C33.9705 341.053 37.973 338.308 38.6591 335.678C39.3452 333.048 46.3209 300.342 46.3209 295.653C46.3209 292.452 46.8927 270.767 46.8927 270.767C46.8927 270.767 50.6664 293.595 50.6664 295.31C50.6664 297.826 50.3233 317.267 49.2941 320.24C48.3793 323.327 48.2649 327.559 49.2941 328.588C49.9803 329.274 50.4377 329.731 50.552 330.074C49.6372 336.25 49.4085 339.795 49.8659 340.824C50.552 342.31 55.4693 342.31 58.0995 345.97C60.7297 349.629 63.1311 351.345 67.1336 351.345C71.136 351.345 74.7954 350.658 71.8221 346.427C68.9633 342.196 61.4158 335.907 61.4158 333.276V327.673C63.4742 326.186 64.5034 324.814 64.5034 323.556C64.5034 321.612 69.192 301.943 69.7637 298.398C70.3355 294.853 70.4499 288.907 69.7637 283.875C69.0776 278.843 66.7905 245.337 65.1895 241.106C63.5886 236.875 62.6737 236.532 62.6737 234.816C62.6737 233.101 62.5594 231.043 63.1311 230.242C63.7029 229.442 64.6178 228.527 64.8465 227.269C65.0752 226.011 67.9341 212.746 67.0192 200.052C66.1044 187.359 59.5861 172.493 57.0703 171.006C55.355 169.977 52.9535 169.405 49.7516 169.176C43.5764 167.804 39.0022 167.804 36.372 169.062Z" fill="#457CFF"/>
<path d="M66.3331 191.836C66.3331 191.836 50.6016 203.619 44.6056 202.454C38.6095 201.288 31.7406 189.532 31.7406 189.532L20.84 219.779L26.2757 243.85C26.2757 243.85 30.6809 245.188 31.7406 241.031C32.8003 236.875 28.225 220.432 31.7406 217.892C35.2562 215.352 38.0391 228.75 43.248 228.75C48.457 228.75 64.8684 225.732 64.8684 225.732L68.1628 202.454L66.3331 191.836Z" fill="black" fill-opacity="0.28827"/>
<path d="M50.214 292.181C50.3284 293.782 50.5755 294.848 50.5755 295.191C50.5755 295.992 50.3468 298.284 50.5755 301.6C53.4344 302.286 55.9268 303.201 61.3015 301.6C64.1603 300.799 68.6202 298.627 70.3355 297.597C70.4499 294.739 70.793 291.118 70.3355 288.144C70.2212 287.23 70.2212 284.932 69.5351 283.189C64.9608 284.332 59.5861 286.619 57.9852 287.534C56.2698 288.678 54.9026 289.55 50.214 292.181Z" fill="#0F1E70"/>
<path d="M24.1361 258.945C28.596 259.289 32.787 258.596 35.6459 259.625C38.8479 260.768 44.5015 263.254 47.1216 264.778C49.9804 262.996 54.101 259.17 57.6967 256.733C61.2662 254.313 62.6908 253.434 66.824 251.761C66.209 246.466 65.7615 242.364 65.1897 241.106C64.2749 238.705 63.6878 237.904 63.2304 236.989C59.1136 239.734 56.0413 242.25 54.0972 244.88C51.8101 247.853 49.7517 252.542 47.6933 258.945C44.8344 253.914 41.4038 249.111 37.5157 244.88C33.8563 240.763 28.9391 238.133 22.8782 236.989C23.5644 245.223 23.9074 252.656 24.1361 258.945Z" fill="#0F1E70"/>
<path d="M21.9633 248.196C22.0776 248.31 22.0776 248.424 22.192 248.653C23.2212 251.283 21.8489 251.512 21.3915 254.028C20.9341 256.658 22.5951 267.36 24.3104 269.075C24.3104 271.376 28.4485 273.022 29.1346 273.479C29.8207 273.937 32.0265 274.383 33.3988 274.04C34.7711 273.697 30.883 260.775 31.9122 259.974C32.827 259.174 35.5716 262.49 36.8295 263.176C38.0874 263.748 38.8879 261.804 37.4012 259.402C36.029 257.001 31.691 249.911 30.7761 248.653C29.8613 247.395 31.6835 240.98 31.6835 239.722C31.6835 239.379 31.4548 238.59 31.6835 238.132C30.0825 238.132 28.5959 238.132 27.1093 238.361C25.737 238.704 23.9073 247.281 21.9633 248.196Z" fill="black" fill-opacity="0.28827"/>
<path d="M50.552 329.846C50.6664 329.846 50.6664 329.846 50.552 329.846C49.6372 336.135 49.4085 339.68 49.8659 340.71C50.552 342.196 55.4693 342.196 58.0995 345.856C60.7297 349.515 63.1311 351.23 67.1336 351.23C71.136 351.23 74.7954 350.544 71.8221 346.313C68.9633 342.082 61.4158 335.792 61.4158 333.162V327.673C59.4718 328.359 57.5277 328.931 55.698 329.274C53.9827 329.617 52.2674 329.846 50.552 329.846Z" fill="#0F1E70"/>
<path d="M49.8661 340.71C50.5522 342.196 55.4695 342.196 58.0997 345.856C60.7299 349.515 63.1313 351.23 67.1338 351.23L67.7511 351.224C69.8961 351.182 71.844 350.893 72.5878 349.901C68.1403 350.058 65.1398 349.758 63.5858 349.001C60.9113 347.699 58.7309 344.321 56.9587 342.539C55.9918 341.567 53.5688 340.701 49.6898 339.942C49.7275 340.274 49.7864 340.53 49.8661 340.71Z" fill="#3D68B2"/>
<path d="M21.2772 366.439C21.7347 368.955 23.336 372.367 27.2338 372.367C30.8302 372.367 33.3872 369.6 33.0209 365.937C32.7062 368.637 31.1339 370.785 27.2237 370.785C21.9634 370.785 21.7347 366.668 21.2772 364.152C21.2433 363.966 21.2181 363.749 21.2007 363.508C21.1471 364.717 21.1553 365.769 21.2772 366.439Z" fill="#3D68B2"/>
<path d="M23.6787 343.34C24.7079 344.483 21.9633 351.001 21.9633 352.374C21.9633 353.746 20.8198 361.637 21.2772 364.152C21.7346 366.668 21.9633 370.785 27.2237 370.785C32.484 370.785 33.5132 366.897 32.9415 363.009C32.3697 359.006 32.141 358.892 32.9415 356.605C33.7419 354.318 33.0558 353.86 32.2553 350.43C31.5692 347.571 31.7979 344.14 32.3697 342.539C31.6835 342.882 30.54 343.225 29.0534 343.568C27.338 343.797 25.5084 343.797 23.6787 343.34Z" fill="#0F1E70"/>
<path d="M25.737 291.994C25.8514 293.252 25.1652 297.597 24.2504 302.972C28.2528 304.344 31.7979 305.03 34.7711 305.03C38.0874 305.03 41.5181 304.573 45.1774 303.773C45.8636 299.77 46.321 296.683 46.321 295.539C46.321 294.853 46.321 293.824 46.321 292.566C42.5473 291.88 39.1166 291.537 36.1434 291.537C33.5132 291.537 30.0825 291.651 25.737 291.994Z" fill="#0F1E70"/>
<path d="M55.5839 170.434C58.9002 171.235 62.2165 172.035 63.4744 172.721C65.3041 173.75 83.7153 198.451 84.8588 203.025C86.0024 207.714 85.0875 212.631 81.4282 214.918C77.7688 217.205 63.0169 223.724 60.5011 222.695C57.9853 221.78 58.6714 221.322 56.7274 221.894C54.7834 222.466 52.2675 225.439 49.2943 226.583C44.6057 228.68 37.7444 219.607 40.832 217.32C41.7469 215.948 44.9807 215.147 45.8955 214.918C48.0682 214.347 49.2943 214.918 49.8661 214.918C51.2383 214.918 52.9537 214.347 52.9537 213.546C52.9537 212.746 52.9537 211.602 53.9829 210.916C55.0121 210.344 67.2481 202.225 67.2481 201.653C67.2481 201.081 66.0267 193.359 63.5109 186.383C60.1946 176.892 57.4135 171.463 55.5839 170.434Z" fill="#0B1E8A"/>
<path d="M50.3234 215.078C50.3234 215.078 47.3593 213.312 46.3407 213.312C45.3221 213.312 40.9311 213.216 40.6284 213.959C40.3257 214.701 42.5105 217.395 42.5105 217.395L50.3234 215.078Z" fill="#3D68B2"/>
<path d="M52.5384 214.408L52.3695 214.314C51.7486 214.688 50.738 214.919 49.866 214.919C49.3214 214.919 48.1834 214.4 46.1994 214.844L45.8954 214.919C44.9806 215.147 41.7468 215.948 40.8319 217.32C37.7844 219.577 44.4291 228.446 49.1105 226.659L49.2942 226.583C52.2675 225.439 54.7833 222.466 56.7273 221.894L57.1184 221.784C57.3534 221.721 57.5402 221.68 57.6977 221.659L57.5688 221.237C57.1805 219.995 56.7448 218.88 56.2617 217.892C55.6495 216.64 54.4084 215.479 52.5384 214.408L52.3695 214.314L52.5384 214.408Z" fill="#0F1E70"/>
<path fill-rule="evenodd" clip-rule="evenodd" d="M51.1239 214.118C53.2967 213.661 55.3551 213.661 57.4134 214.118C59.4718 214.576 61.1872 215.833 62.5594 217.892L78.3405 210.344C78.3405 209.201 78.1118 208.4 77.4256 207.829C76.9139 204.736 71.2505 202.454 68.1629 202.454C65.0753 202.454 53.7541 207.485 52.3818 208.515C51.5813 209.315 51.1239 211.145 51.1239 214.118Z" fill="#BAC8FF"/>
<path d="M64.6544 213.308L77.3478 207.712C77.9196 208.284 78.4863 208.814 78.3405 210.344L62.5594 217.892C61.1872 215.833 59.4718 214.886 57.4134 214.314C55.3551 213.856 53.2967 213.856 51.1239 214.314C51.1239 211.455 51.5035 210.457 52.4184 209.656C60.1391 208.35 63.5108 213.422 64.6544 213.308Z" fill="#3D68B2"/>
<path d="M15.9025 181.184C17.6178 179.24 20.1336 178.668 22.192 178.668C24.2504 178.668 33.6275 182.213 32.3696 193.305C31.1117 204.512 27.9098 209.544 27.9098 214.118C27.9098 218.692 28.8246 221.551 29.5107 224.982C30.1969 228.413 30.883 239.048 30.1969 240.649C29.5108 242.25 28.0241 244.079 28.0241 245.223C28.0241 246.481 27.5667 248.082 28.4816 249.34C29.3964 250.597 32.5983 253.571 34.085 256.087C35.4572 258.488 34.7711 260.546 33.5132 259.86C32.2553 259.288 29.5107 255.858 28.5959 256.658C27.6811 257.459 30.3112 270.381 28.939 270.724C27.5667 271.067 27.1093 269.237 26.4232 268.78C25.737 268.323 21.2772 268.094 19.6762 266.493C17.9609 264.778 17.6178 254.486 18.0752 251.855C18.5326 249.225 19.9049 249.111 18.8757 246.481C17.8465 243.851 15.5594 243.851 14.9876 241.792C14.4158 239.734 10.0703 221.78 10.6421 217.777C11.3283 213.775 12.3574 201.768 12.3574 199.252C12.2431 196.622 14.1871 183.128 15.9025 181.184Z" fill="#0B1E8A"/>
<path d="M18.5327 245.909C18.6471 246.023 18.6471 246.138 18.7614 246.366C19.7906 248.997 18.4184 249.225 17.961 251.741C17.5035 254.371 17.8466 264.663 19.5619 266.379C21.1629 268.094 26.1615 269.592 26.8476 270.049C27.5338 270.506 28.596 272.096 29.9683 271.753C31.3405 271.41 28.596 258.488 29.6252 257.688C30.54 256.887 33.2846 260.203 34.5425 260.889C35.8004 261.461 36.6009 259.517 35.1143 257.116C33.742 254.714 29.2322 250.486 28.5098 249.243C27.7874 247.999 28.1667 246.301 28.1667 245.043C28.1667 244.7 28.2811 244.243 28.5098 243.785C26.9088 243.785 25.1653 243.851 23.6787 244.079C22.3065 244.422 20.4768 244.994 18.5327 245.909Z" fill="#0F1E70"/>
<path d="M19.4183 185.454C22.0608 185.685 23.9531 188.729 23.6448 192.252C23.3366 195.776 20.9445 198.444 18.302 198.213C15.6596 197.982 13.7673 194.938 14.0755 191.415C14.3838 187.892 16.7759 185.223 19.4183 185.454Z" fill="#0F1E70"/>
<path d="M17.9595 185.326C20.602 185.557 22.4943 188.601 22.186 192.124C21.8778 195.648 19.4857 198.316 16.8432 198.085C14.2008 197.854 12.3085 194.81 12.6167 191.287C12.925 187.764 15.3171 185.095 17.9595 185.326Z" fill="#F8FCFF"/>
<path d="M62.9025 188.388C62.7881 187.816 62.3307 187.473 61.7589 187.588L34.771 191.704C34.1993 191.819 33.8562 192.276 33.9706 192.848L35.6859 205.084C35.8002 205.656 36.2577 205.999 36.8294 205.885L64.046 201.425C64.6178 201.31 64.9609 200.853 64.8465 200.281L62.9025 188.388Z" fill="#F8FCFF"/>
<path d="M74.4303 206.777L74.4031 206.786L74.3775 206.799C74.2863 206.844 74.2331 206.859 74.2023 206.866C74.1801 206.87 74.1617 206.872 74.1315 206.872C73.7015 206.772 73.4985 206.464 73.5537 206.188L73.5563 206.175L73.558 206.162L78.358 168.677C78.4541 168.309 78.6116 168.128 78.8736 168.062L78.8834 168.06L78.8931 168.057L103.424 160.526H103.425H103.426H103.426H103.427H103.428H103.428H103.429H103.43H103.43H103.431H103.432H103.432H103.433H103.434H103.434H103.435H103.436H103.437H103.437H103.438H103.439H103.439H103.44H103.441H103.441H103.442H103.443H103.443H103.444H103.445H103.445H103.446H103.447H103.447H103.448H103.449H103.449H103.45H103.451H103.451H103.452H103.453H103.453H103.454H103.455H103.455H103.456H103.457H103.457H103.458H103.459H103.459H103.46H103.461H103.461H103.462H103.463H103.463H103.464H103.465H103.465H103.466H103.467H103.467H103.468H103.469H103.469H103.47H103.471H103.471H103.472H103.473H103.473H103.474H103.475H103.475H103.476H103.477H103.477H103.478H103.479H103.479H103.48H103.481H103.481H103.482H103.483H103.483H103.484H103.485H103.485H103.486H103.487H103.487H103.488H103.489H103.489H103.49H103.491H103.491H103.492H103.493H103.493H103.494H103.495H103.495H103.496H103.497H103.497H103.498H103.499H103.499H103.5H103.501H103.501H103.502H103.503H103.504H103.504H103.505H103.506H103.506H103.507H103.508H103.508H103.509H103.51H103.51H103.511H103.512H103.512H103.513H103.514H103.514H103.515H103.516H103.516H103.517H103.518H103.518H103.519H103.52H103.52H103.521H103.522H103.522H103.523H103.524H103.524H103.525H103.526H103.526H103.527H103.528H103.528H103.529H103.53H103.53H103.531H103.532H103.532H103.533H103.534H103.534H103.535H103.536H103.536H103.537H103.538H103.538H103.539H103.54H103.54H103.541H103.542H103.542H103.543H103.544H103.544H103.545H103.546H103.546H103.547H103.548H103.548H103.549H103.55H103.55H103.551H103.552H103.552H103.553H103.554H103.554H103.555H103.556H103.556H103.557H103.558H103.558H103.559H103.56H103.56H103.561H103.562H103.562H103.563H103.564H103.564H103.565H103.566H103.566H103.567H103.568H103.569H103.569H103.57H103.571H103.571H103.572H103.573H103.573H103.574H103.575H103.575H103.576H103.577H103.577H103.578H103.579H103.579H103.58H103.581H103.581H103.582H103.583H103.583H103.584H103.585H103.585H103.586H103.587H103.587H103.588H103.589H103.589H103.59H103.591H103.591H103.592H103.593H103.593H103.594H103.595H103.595H103.596H103.597H103.597H103.598H103.599H103.599H103.6H103.601H103.601H103.602H103.603H103.603H103.604H103.605H103.605H103.606H103.607H103.607H103.608H103.609H103.609H103.61H103.611H103.611H103.612H103.613H103.613H103.614H103.615H103.615H103.616H103.617H103.617H103.618H103.619H103.619H103.62H103.621H103.621H103.622H103.623H103.623H103.624H103.625H103.625H103.626H103.627H103.627H103.628H103.629H103.629H103.63H103.631H103.631H103.632H103.633H103.633H103.634H103.635H103.636H103.636H103.637H103.638H103.638H103.639H103.64H103.64H103.641H103.642H103.642H103.643H103.644H103.644H103.645H103.646H103.646H103.647H103.648H103.648H103.649H103.65H103.65H103.651H103.652H103.652H103.653H103.654H103.654H103.655H103.656H103.656H103.657H103.658H103.658H103.659H103.66H103.66H103.661H103.662H103.662H103.663H103.664H103.664H103.665H103.666H103.666H103.667H103.668H103.668H103.669H103.669C104.1 160.626 104.303 160.934 104.248 161.21L104.245 161.223L104.244 161.236L99.4408 198.288L99.4376 198.312V198.337C99.4376 198.382 99.4115 198.466 99.3218 198.566C99.235 198.662 99.1193 198.738 99.0151 198.773C99.0148 198.773 99.0145 198.773 99.0142 198.773L74.4303 206.777Z" fill="#FFAF8A" fill-opacity="0.47" stroke="#FF8C70" stroke-width="0.768307"/>
<path d="M49.0064 168.784L36.9538 168.715L35.3595 169.544L43.5062 180.041C43.7349 180.384 44.078 180.613 44.5354 180.613L50.7808 179.583H50.8951C51.4669 179.469 51.81 178.897 51.5813 178.325L49.0064 168.784Z" fill="#0B1E8A"/>
<path fill-rule="evenodd" clip-rule="evenodd" d="M49.4085 169.062H36.4863L44.3769 178.896C44.6056 179.24 44.9486 179.468 45.4061 179.468L50.7808 178.439H50.8951C51.4669 178.325 51.81 177.753 51.5813 177.181L49.4085 169.062Z" fill="#BAC8FF"/>
<path d="M44.6055 170.434C41.861 170.434 39.2308 169.977 36.372 169.062C36.715 164.831 36.715 161.4 36.372 158.77C35.9145 154.882 35.5715 140.816 41.1749 139.33C46.7783 137.729 53.754 140.016 56.3841 145.047C60.2722 152.366 55.0119 166.775 52.7248 167.232C51.9243 167.461 50.7807 167.347 49.1798 167.118V169.862C48.8367 170.32 47.3501 170.434 44.6055 170.434Z" fill="#FFA877"/>
<path d="M43.5062 165.942C44.463 167.402 45.5988 168.327 46.9137 168.715C47.7402 168.959 48.4961 169.07 49.1812 169.047L49.1798 167.118L49.4301 167.153L49.4085 167.116C48.369 167.118 47.464 167.043 46.6936 166.89C45.9231 166.736 44.8607 166.42 43.5062 165.942Z" fill="black" fill-opacity="0.28827"/>
<path d="M61.5303 143.447C62.3308 145.048 61.6446 151.223 57.8709 151.223C53.9828 151.223 48.7225 147.335 47.0072 147.335C45.4062 147.335 45.7493 153.281 44.6057 153.624C43.4621 154.082 45.0631 150.308 43.2334 149.622C41.4038 148.936 40.3746 149.965 40.3746 150.537C40.3746 151.109 39.9171 154.997 38.4305 155.912C37.4013 156.483 36.7152 157.055 36.3721 157.741C34.9999 156.255 34.1994 154.654 34.1994 152.938C34.1994 150.308 34.1994 144.59 35.1142 143.104C35.8003 142.075 37.0583 140.931 39.1166 139.787C39.9171 137.043 41.175 135.785 42.6617 135.785C45.0631 135.785 48.1507 137.843 49.4086 137.843C50.6665 137.843 55.2408 137.615 56.613 138.873C57.9853 140.245 56.7274 142.418 57.2991 142.761C57.8709 143.104 60.7298 141.846 61.5303 143.447Z" fill="#0B1E8A"/>
<path d="M23.5321 152.252C23.5321 164.522 33.479 174.469 45.7492 174.469C58.0194 174.469 67.9663 164.522 67.9663 152.252C67.9663 139.982 58.0194 130.035 45.7492 130.035C33.479 130.035 23.5321 139.982 23.5321 152.252Z" fill="#0B1E8A" fill-opacity="0.19" stroke="#ECEAFE" stroke-width="1.53661"/>
<path opacity="0.504464" fill-rule="evenodd" clip-rule="evenodd" d="M31.5161 144.889C32.3798 142.854 32.1374 140.805 30.9747 140.311C29.812 139.817 28.1692 141.067 27.3055 143.102C26.4418 145.136 26.6842 147.186 27.8469 147.68C29.0097 148.173 30.6524 146.924 31.5161 144.889Z" fill="white"/>
<defs>
<filter id="filter0_d_237_188" x="0.834698" y="18.9576" width="452.218" height="452.218" filterUnits="userSpaceOnUse" color-interpolation-filters="sRGB">
<feFlood flood-opacity="0" result="BackgroundImageFix"/>
<feColorMatrix in="SourceAlpha" type="matrix" values="0 0 0 0 0 0 0 0 0 0 0 0 0 0 0 0 0 0 127 0" result="hardAlpha"/>
<feOffset dy="14.5263"/>
<feGaussianBlur stdDeviation="14.5263"/>
<feColorMatrix type="matrix" values="0 0 0 0 0.976471 0 0 0 0 0.521569 0 0 0 0 0 0 0 0 0.29 0"/>
<feBlend mode="normal" in2="BackgroundImageFix" result="effect1_dropShadow_237_188"/>
<feBlend mode="normal" in="SourceGraphic" in2="effect1_dropShadow_237_188" result="shape"/>
</filter>
<linearGradient id="paint0_linear_237_188" x1="476.801" y1="30.9061" x2="37.3563" y2="30.9061" gradientUnits="userSpaceOnUse">
<stop stop-color="#431818"/>
<stop offset="1" stop-color="#D13333"/>
</linearGradient>
<linearGradient id="paint1_linear_237_188" x1="391.759" y1="291.695" x2="-11.1827" y2="291.695" gradientUnits="userSpaceOnUse">
<stop stop-color="#3C003B"/>
<stop offset="1" stop-color="#3E00FF"/>
</linearGradient>
<linearGradient id="paint2_linear_237_188" x1="384.924" y1="418.659" x2="374.949" y2="354.03" gradientUnits="userSpaceOnUse">
<stop stop-color="#FF3F5D"/>
<stop offset="1" stop-color="#FF3F87" stop-opacity="0.179223"/>
</linearGradient>
<linearGradient id="paint3_linear_237_188" x1="227.996" y1="151.585" x2="273.653" y2="62.1357" gradientUnits="userSpaceOnUse">
<stop stop-color="#FFD73F"/>
<stop offset="1" stop-color="#FF3F87" stop-opacity="0.179223"/>
</linearGradient>
<linearGradient id="paint4_linear_237_188" x1="186.342" y1="39.3261" x2="132.258" y2="188.702" gradientUnits="userSpaceOnUse">
<stop stop-color="#3C003B"/>
<stop offset="1" stop-color="#3E00FF"/>
</linearGradient>
<linearGradient id="paint5_linear_237_188" x1="268.329" y1="45.8132" x2="38.3819" y2="45.8132" gradientUnits="userSpaceOnUse">
<stop stop-color="#5A168D" stop-opacity="0.01"/>
<stop offset="1" stop-color="#FFDD32"/>
</linearGradient>
<linearGradient id="paint6_linear_237_188" x1="463.59" y1="134.585" x2="177.653" y2="-89.6779" gradientUnits="userSpaceOnUse">
<stop stop-color="#3B004E"/>
<stop offset="1" stop-color="#FFA7A7"/>
</linearGradient>
<linearGradient id="paint7_linear_237_188" x1="419.258" y1="216.027" x2="357.191" y2="211.665" gradientUnits="userSpaceOnUse">
<stop stop-color="#70212C"/>
<stop offset="1" stop-color="#732323"/>
</linearGradient>
<linearGradient id="paint8_linear_237_188" x1="435.153" y1="151.947" x2="364.824" y2="86.3079" gradientUnits="userSpaceOnUse">
<stop stop-color="#4A0000"/>
<stop offset="1" stop-color="#D13333"/>
</linearGradient>
<linearGradient id="paint9_linear_237_188" x1="276.602" y1="67.8241" x2="253.835" y2="58.0286" gradientUnits="userSpaceOnUse">
<stop stop-color="#49004A"/>
<stop offset="1" stop-color="#D13333"/>
</linearGradient>
<linearGradient id="paint10_linear_237_188" x1="270.921" y1="69.2737" x2="266.082" y2="59.8503" gradientUnits="userSpaceOnUse">
<stop stop-color="#D13333"/>
<stop offset="1" stop-color="white"/>
</linearGradient>
<linearGradient id="paint11_linear_237_188" x1="347.497" y1="93.9467" x2="339.268" y2="101.256" gradientUnits="userSpaceOnUse">
<stop stop-color="#3C0000"/>
<stop offset="1" stop-color="#3B13B8"/>
</linearGradient>
<linearGradient id="paint12_linear_237_188" x1="358.464" y1="102.661" x2="349.969" y2="93.292" gradientUnits="userSpaceOnUse">
<stop stop-color="#3C0000"/>
<stop offset="1" stop-color="#6A1159"/>
</linearGradient>
<linearGradient id="paint13_linear_237_188" x1="295.58" y1="185.329" x2="67.6096" y2="117.619" gradientUnits="userSpaceOnUse">
<stop stop-color="#AB3438"/>
<stop offset="1" stop-color="#FFA7A7"/>
</linearGradient>
<linearGradient id="paint14_linear_237_188" x1="336.103" y1="154.053" x2="242.376" y2="237.097" gradientUnits="userSpaceOnUse">
<stop stop-color="#AB3438"/>
<stop offset="1" stop-color="#FFA7A7"/>
</linearGradient>
<linearGradient id="paint15_linear_237_188" x1="359.394" y1="164.414" x2="325.091" y2="75.4072" gradientUnits="userSpaceOnUse">
<stop stop-color="#AB3438"/>
<stop offset="1" stop-color="#FFA7A7"/>
</linearGradient>
<linearGradient id="paint16_linear_237_188" x1="297.595" y1="169.107" x2="285.293" y2="155.154" gradientUnits="userSpaceOnUse">
<stop stop-color="#49004A"/>
<stop offset="1" stop-color="#D13333"/>
</linearGradient>
<linearGradient id="paint17_linear_237_188" x1="280.323" y1="166.703" x2="278.932" y2="163.412" gradientUnits="userSpaceOnUse">
<stop stop-color="#D13333"/>
<stop offset="1" stop-color="white"/>
</linearGradient>
<linearGradient id="paint18_linear_237_188" x1="290.373" y1="166.249" x2="288.224" y2="162.748" gradientUnits="userSpaceOnUse">
<stop stop-color="#D13333"/>
<stop offset="1" stop-color="white"/>
</linearGradient>
</defs>
</svg>
